<svg width="450" height="584" viewBox="0 0 450 584" fill="none" xmlns="http://www.w3.org/2000/svg">
<path d="M73.916 180.868C71.191 184.808 68.291 188.383 65.361 191.986C49.737 211.324 32.364 233.721 30.386 303.296C8.518 309.952 0 330.929 0 346C0 354.203 6.592 360.795 14.824 360.897C24.082 360.794 29.824 354.378 30 346.175C30.176 339.247 32.93 331 45 331C57.07 331 59.824 339.232 60 346.146C60.088 354.364 66.768 361 75 361C83.291 361 90 354.291 90 346C90 331.099 81.649 310.445 60.33 303.543C61.985 244.68 74.913 227.922 88.711 210.839C92.08 206.664 95.42 202.519 98.584 197.948C103.301 191.136 101.602 181.791 94.775 177.074C88.037 172.357 78.633 174.027 73.916 180.868Z" fill="#5E79BC"/>
<path d="M419.614 303.296C417.636 233.721 400.263 211.324 384.639 191.986C381.709 188.382 378.809 184.808 376.084 180.868C371.367 174.027 361.934 172.372 355.225 177.074C348.399 181.791 346.7 191.137 351.416 197.948C354.58 202.518 357.92 206.664 361.289 210.839C375.088 227.923 388.015 244.681 389.67 303.543C368.351 310.445 360 331.099 360 346C360 354.203 366.592 360.795 374.824 360.897C383.73 360.794 389.795 354.378 390 346.175C390.176 339.246 392.93 330.999 405 330.999C417.07 330.999 419.824 339.246 420 345.999C420 354.29 426.709 360.999 435 360.999C443.291 360.999 450 354.29 450 345.999C450 330.929 441.482 309.952 419.614 303.296Z" fill="#47568C"/>
<path d="M105 211C80.186 211 60 190.814 60 166C60 141.186 80.186 121 105 121C129.814 121 150 141.186 150 166C150 190.814 129.814 211 105 211Z" fill="#C7CFE1"/>
<path d="M345 211C320.186 211 300 190.814 300 166C300 141.186 320.186 121 345 121C369.814 121 390 141.186 390 166C390 190.814 369.814 211 345 211Z" fill="#C7CFE1"/>
<path d="M150 361C141.709 361 135 354.291 135 346V275.761C135 267.47 141.709 260.761 150 260.761C158.291 260.761 165 267.47 165 275.761V346C165 354.291 158.291 361 150 361Z" fill="#5E79BC"/>
<path d="M300 361C291.709 361 285 354.291 285 346V275.761C285 267.47 291.709 260.761 300 260.761C308.291 260.761 315 267.47 315 275.761V346C315 354.291 308.291 361 300 361Z" fill="#47568C"/>
<path d="M195 512H105C96.709 512 90 505.291 90 497C90 372.562 136.377 337.05 141.68 333.52C146.719 330.151 153.282 330.151 158.321 333.52C163.623 337.05 210 372.562 210 497C210 505.291 203.291 512 195 512Z" fill="#C7CFE1"/>
<path d="M345 512H255C246.709 512 240 505.291 240 497C240 372.562 286.377 337.05 291.68 333.52C296.719 330.151 303.282 330.151 308.321 333.52C313.623 337.05 360 372.562 360 497C360 505.291 353.291 512 345 512Z" fill="#C7CFE1"/>
<path d="M330 166V226C330 283.9 282.9 331 225 331C167.1 331 120 283.9 120 226V166C120 138.399 130.8 112 150 92.5L225 61.5L300 92.5C319.2 112 330 138.399 330 166Z" fill="#F0F7FF"/>
<path d="M330 226V166C330 138.399 319.2 112 300 92.5L225 61.5V331C282.9 331 330 283.9 330 226Z" fill="#DFE7F4"/>
<path d="M225 0C183.6 0 150 33.6 150 75V92.5H300V75C300 33.6 266.4 0 225 0Z" fill="#C7CFE1"/>
<path d="M300 92.5V75C300 33.6 266.4 0 225 0V92.5H300Z" fill="#C7CFE1"/>
<path d="M255 241H195C186.709 241 180 234.291 180 226V166C180 157.709 186.709 151 195 151H255C263.291 151 270 157.709 270 166V226C270 234.291 263.291 241 255 241Z" fill="#5E79BC"/>
<path d="M225 241H255C263.291 241 270 234.291 270 226V166C270 157.709 263.291 151 255 151H225V241Z" fill="#47568C"/>
<g filter="url(#filter0_d)">
<path d="M108.894 572.832C106.889 572.832 105.268 572.448 104.03 571.68C102.836 570.912 101.876 569.696 101.15 568.032C100.468 566.325 99.9129 563.957 99.4863 560.928L97.5663 548.768C97.4809 548.213 97.3743 547.851 97.2463 547.68C97.1183 547.467 96.8623 547.36 96.4783 547.36H93.9823L93.4062 545.952C94.4303 544.971 95.6249 544.16 96.9903 543.52C98.3983 542.837 99.6356 542.496 100.702 542.496C101.769 542.496 102.409 543.072 102.622 544.224L105.182 562.464C105.524 564.768 106.036 566.453 106.718 567.52C107.401 568.544 108.382 569.056 109.662 569.056C110.9 569.056 111.988 568.395 112.926 567.072C113.908 565.749 114.654 564 115.166 561.824C115.678 559.648 115.934 557.344 115.934 554.912C115.934 553.077 115.721 551.285 115.294 549.536C114.868 547.744 114.228 546.165 113.374 544.8L112.798 543.968L113.438 543.2L120.222 542.496C120.478 544.544 120.606 546.592 120.606 548.64C120.606 550.517 120.478 552.395 120.222 554.272L121.438 562.464C121.78 564.811 122.292 566.496 122.974 567.52C123.7 568.544 124.745 569.056 126.11 569.056C127.348 569.056 128.436 568.395 129.374 567.072C130.356 565.707 131.102 563.957 131.614 561.824C132.169 559.648 132.446 557.344 132.446 554.912C132.446 553.077 132.233 551.285 131.806 549.536C131.38 547.744 130.74 546.165 129.886 544.8L129.374 543.968L129.95 543.2L136.798 542.496C136.969 545.227 137.054 547.275 137.054 548.64C137.054 553.76 136.521 558.155 135.454 561.824C134.43 565.451 133.044 568.203 131.294 570.08C129.588 571.915 127.71 572.832 125.662 572.832C123.444 572.832 121.694 572.277 120.414 571.168C119.134 570.059 118.153 568.181 117.47 565.536C116.446 567.925 115.188 569.739 113.694 570.976C112.244 572.213 110.644 572.832 108.894 572.832ZM169.267 572.832C166.579 572.832 164.233 572.213 162.227 570.976C160.222 569.739 158.665 568.011 157.555 565.792C156.446 563.531 155.891 560.928 155.891 557.984C155.891 554.912 156.51 552.203 157.747 549.856C158.985 547.509 160.734 545.696 162.995 544.416C165.299 543.136 167.945 542.496 170.931 542.496C174.089 542.496 176.521 543.328 178.227 544.992C179.977 546.656 180.851 548.661 180.851 551.008C180.851 552.629 180.403 554.187 179.507 555.68C178.654 557.173 177.374 558.389 175.667 559.328C174.003 560.267 172.041 560.736 169.779 560.736C168.499 560.736 167.113 560.523 165.619 560.096C164.126 559.627 163.379 558.944 163.379 558.048C163.379 557.707 163.465 557.408 163.635 557.152C163.806 556.896 163.998 556.768 164.211 556.768C164.339 556.768 164.723 556.896 165.363 557.152C166.046 557.365 166.921 557.472 167.987 557.472C170.334 557.472 172.147 556.832 173.427 555.552C174.707 554.272 175.347 552.736 175.347 550.944C175.347 549.408 174.835 548.085 173.811 546.976C172.83 545.867 171.507 545.312 169.843 545.312C167.326 545.312 165.363 546.421 163.955 548.64C162.59 550.816 161.907 553.931 161.907 557.984C161.907 561.44 162.633 564.149 164.083 566.112C165.577 568.032 167.71 568.992 170.483 568.992C173.897 568.992 176.713 567.883 178.931 565.664C179.059 565.536 179.23 565.472 179.443 565.472C179.785 565.472 180.126 565.643 180.467 565.984C180.851 566.325 181.043 566.688 181.043 567.072C181.043 567.2 181.001 567.328 180.915 567.456C180.83 567.541 180.787 567.605 180.787 567.648C179.337 569.355 177.609 570.656 175.603 571.552C173.641 572.405 171.529 572.832 169.267 572.832ZM213.332 572.832C211.071 572.832 208.959 572.512 206.996 571.872C205.076 571.189 203.54 570.272 202.388 569.12V532.896C202.388 532.427 202.303 532.107 202.132 531.936C201.962 531.723 201.663 531.616 201.236 531.616H198.74L198.164 530.144C199.274 529.12 200.554 528.288 202.004 527.648C203.455 526.965 204.756 526.624 205.908 526.624C206.463 526.624 206.911 526.795 207.252 527.136C207.594 527.477 207.764 527.925 207.764 528.48V567.712C209.428 568.949 211.434 569.568 213.78 569.568C216.383 569.568 218.431 568.501 219.924 566.368C221.418 564.192 222.164 561.269 222.164 557.6C222.164 554.016 221.439 551.136 219.988 548.96C218.538 546.784 216.596 545.696 214.164 545.696C213.098 545.696 212.244 545.824 211.604 546.08C211.007 546.293 210.644 546.4 210.516 546.4C210.303 546.4 210.09 546.272 209.876 546.016C209.706 545.76 209.62 545.483 209.62 545.184C209.62 544.715 209.812 544.331 210.196 544.032C211.946 543.008 213.908 542.496 216.084 542.496C218.431 542.496 220.522 543.093 222.356 544.288C224.234 545.483 225.684 547.147 226.708 549.28C227.775 551.371 228.308 553.781 228.308 556.512C228.308 559.584 227.647 562.379 226.324 564.896C225.044 567.371 223.274 569.312 221.012 570.72C218.751 572.128 216.191 572.832 213.332 572.832ZM260.257 572.832C257.996 572.832 255.884 572.512 253.921 571.872C252.001 571.189 250.465 570.272 249.313 569.12V532.896C249.313 532.427 249.228 532.107 249.057 531.936C248.887 531.723 248.588 531.616 248.161 531.616H245.665L245.089 530.144C246.199 529.12 247.479 528.288 248.929 527.648C250.38 526.965 251.681 526.624 252.833 526.624C253.388 526.624 253.836 526.795 254.177 527.136C254.519 527.477 254.689 527.925 254.689 528.48V567.712C256.353 568.949 258.359 569.568 260.705 569.568C263.308 569.568 265.356 568.501 266.849 566.368C268.343 564.192 269.089 561.269 269.089 557.6C269.089 554.016 268.364 551.136 266.913 548.96C265.463 546.784 263.521 545.696 261.089 545.696C260.023 545.696 259.169 545.824 258.529 546.08C257.932 546.293 257.569 546.4 257.441 546.4C257.228 546.4 257.015 546.272 256.801 546.016C256.631 545.76 256.545 545.483 256.545 545.184C256.545 544.715 256.737 544.331 257.121 544.032C258.871 543.008 260.833 542.496 263.009 542.496C265.356 542.496 267.447 543.093 269.281 544.288C271.159 545.483 272.609 547.147 273.633 549.28C274.7 551.371 275.233 553.781 275.233 556.512C275.233 559.584 274.572 562.379 273.249 564.896C271.969 567.371 270.199 569.312 267.937 570.72C265.676 572.128 263.116 572.832 260.257 572.832ZM307.374 572.832C303.022 572.832 299.566 571.467 297.006 568.736C294.446 565.963 293.166 562.251 293.166 557.6C293.166 552.949 294.446 549.28 297.006 546.592C299.566 543.861 303.022 542.496 307.374 542.496C310.233 542.496 312.729 543.115 314.862 544.352C316.996 545.589 318.638 547.339 319.79 549.6C320.942 551.861 321.518 554.528 321.518 557.6C321.518 560.672 320.921 563.36 319.726 565.664C318.574 567.968 316.932 569.739 314.798 570.976C312.665 572.213 310.19 572.832 307.374 572.832ZM307.246 569.696C309.678 569.696 311.641 568.608 313.134 566.432C314.67 564.213 315.438 561.312 315.438 557.728C315.438 555.893 315.182 554.059 314.67 552.224C314.158 550.347 313.305 548.768 312.11 547.488C310.958 546.165 309.444 545.504 307.566 545.504C305.049 545.504 303.022 546.613 301.486 548.832C299.993 551.051 299.246 553.995 299.246 557.664C299.246 561.333 299.95 564.256 301.358 566.432C302.809 568.608 304.772 569.696 307.246 569.696ZM347.658 572.832C346.08 572.832 344.842 572.341 343.946 571.36C343.05 570.336 342.602 568.949 342.602 567.2V546.784H337.546C337.546 545.76 337.632 545.099 337.802 544.8C337.973 544.459 338.357 544.203 338.954 544.032C341.002 543.52 342.453 542.667 343.306 541.472C344.16 540.277 344.8 538.699 345.226 536.736C345.312 536.139 345.504 535.776 345.802 535.648C346.144 535.477 346.869 535.392 347.978 535.392V543.2H355.466C355.466 544.011 355.338 544.736 355.082 545.376C354.869 546.016 354.57 546.485 354.186 546.784H347.978V565.536C347.978 566.731 348.128 567.584 348.426 568.096C348.768 568.565 349.344 568.8 350.154 568.8C351.306 568.8 352.608 568.181 354.058 566.944L355.146 568.48C354.165 569.76 352.97 570.805 351.562 571.616C350.154 572.427 348.853 572.832 347.658 572.832Z" fill="black"/>
<path d="M104.03 571.68L103.489 572.521L103.496 572.525L103.503 572.53L104.03 571.68ZM101.15 568.032L100.222 568.403L100.227 568.418L100.234 568.432L101.15 568.032ZM99.4863 560.928L100.476 560.789L100.475 560.78L100.474 560.772L99.4863 560.928ZM97.5663 548.768L96.5779 548.92L96.5785 548.924L97.5663 548.768ZM97.2463 547.68L96.3888 548.194L96.4153 548.239L96.4462 548.28L97.2463 547.68ZM93.9823 547.36L93.0567 547.739L93.3109 548.36H93.9823V547.36ZM93.4062 545.952L92.7143 545.23L92.2231 545.701L92.4807 546.331L93.4062 545.952ZM96.9903 543.52L97.4147 544.426L97.4265 544.42L96.9903 543.52ZM102.622 544.224L103.613 544.085L103.61 544.063L103.606 544.042L102.622 544.224ZM105.182 562.464L104.192 562.603L104.193 562.611L105.182 562.464ZM106.718 567.52L105.876 568.059L105.881 568.067L105.886 568.075L106.718 567.52ZM112.926 567.072L112.123 566.476L112.117 566.485L112.111 566.493L112.926 567.072ZM115.166 561.824L114.193 561.595L114.193 561.595L115.166 561.824ZM115.294 549.536L114.321 549.768L114.323 549.773L115.294 549.536ZM113.374 544.8L114.222 544.27L114.21 544.25L114.196 544.231L113.374 544.8ZM112.798 543.968L112.03 543.328L111.543 543.912L111.976 544.537L112.798 543.968ZM113.438 543.2L113.335 542.205L112.93 542.247L112.67 542.56L113.438 543.2ZM120.222 542.496L121.215 542.372L121.093 541.4L120.119 541.501L120.222 542.496ZM120.222 554.272L119.231 554.137L119.212 554.278L119.233 554.419L120.222 554.272ZM121.438 562.464L122.428 562.32L122.427 562.317L121.438 562.464ZM122.974 567.52L122.142 568.075L122.15 568.086L122.158 568.098L122.974 567.52ZM129.374 567.072L128.562 566.488L128.559 566.493L129.374 567.072ZM131.614 561.824L130.645 561.577L130.642 561.591L131.614 561.824ZM131.806 549.536L130.833 549.768L130.835 549.773L131.806 549.536ZM129.886 544.8L129.035 545.324L129.038 545.33L129.886 544.8ZM129.374 543.968L128.574 543.368L128.166 543.912L128.523 544.492L129.374 543.968ZM129.95 543.2L129.848 542.205L129.413 542.25L129.15 542.6L129.95 543.2ZM136.798 542.496L137.796 542.434L137.731 541.395L136.696 541.501L136.798 542.496ZM135.454 561.824L134.494 561.545L134.492 561.552L135.454 561.824ZM131.294 570.08L130.563 569.398L130.562 569.399L131.294 570.08ZM117.47 565.536L118.439 565.286L117.706 562.447L116.551 565.142L117.47 565.536ZM113.694 570.976L113.056 570.206L113.051 570.211L113.045 570.215L113.694 570.976ZM108.894 571.832C107.008 571.832 105.588 571.47 104.558 570.83L103.503 572.53C104.948 573.426 106.77 573.832 108.894 573.832V571.832ZM104.571 570.839C103.583 570.204 102.735 569.165 102.067 567.632L100.234 568.432C101.016 570.227 102.088 571.62 103.489 572.521L104.571 570.839ZM102.079 567.661C101.439 566.061 100.898 563.783 100.476 560.789L98.496 561.067C98.9275 564.131 99.4961 566.589 100.222 568.403L102.079 567.661ZM100.474 560.772L98.554 548.612L96.5785 548.924L98.4985 561.084L100.474 560.772ZM98.5546 548.616C98.5081 548.314 98.4519 548.037 98.3816 547.798C98.3165 547.576 98.2171 547.308 98.0463 547.08L96.4462 548.28C96.4192 548.244 96.414 548.226 96.4229 548.247C96.4308 548.265 96.445 548.301 96.4629 548.362C96.4992 548.486 96.5391 548.668 96.5779 548.92L98.5546 548.616ZM98.1037 547.166C97.7104 546.51 97.0099 546.36 96.4783 546.36V548.36C96.5856 548.36 96.6047 548.376 96.5736 548.363C96.5552 548.355 96.5229 548.339 96.4861 548.308C96.4483 548.277 96.4147 548.238 96.3888 548.194L98.1037 547.166ZM96.4783 546.36H93.9823V548.36H96.4783V546.36ZM94.9078 546.981L94.3318 545.573L92.4807 546.331L93.0567 547.739L94.9078 546.981ZM94.0982 546.674C95.0387 545.773 96.1416 545.022 97.4147 544.425L96.5658 542.615C95.1082 543.298 93.8218 544.169 92.7143 545.23L94.0982 546.674ZM97.4265 544.42C98.7571 543.775 99.8405 543.496 100.702 543.496V541.496C99.4307 541.496 98.0394 541.9 96.554 542.62L97.4265 544.42ZM100.702 543.496C101.05 543.496 101.218 543.586 101.313 543.671C101.419 543.767 101.558 543.969 101.639 544.406L103.606 544.042C103.473 543.327 103.185 542.665 102.651 542.185C102.106 541.694 101.421 541.496 100.702 541.496V543.496ZM101.632 544.363L104.192 562.603L106.173 562.325L103.613 544.085L101.632 544.363ZM104.193 562.611C104.541 564.956 105.078 566.812 105.876 568.059L107.561 566.981C106.994 566.095 106.507 564.58 106.171 562.317L104.193 562.611ZM105.886 568.075C106.763 569.39 108.064 570.056 109.662 570.056V568.056C108.701 568.056 108.039 567.698 107.55 566.965L105.886 568.075ZM109.662 570.056C111.321 570.056 112.68 569.147 113.742 567.651L112.111 566.493C111.295 567.642 110.479 568.056 109.662 568.056V570.056ZM113.729 567.668C114.815 566.204 115.607 564.317 116.14 562.053L114.193 561.595C113.702 563.683 113 565.294 112.123 566.476L113.729 567.668ZM116.14 562.053C116.671 559.796 116.934 557.414 116.934 554.912H114.934C114.934 557.274 114.686 559.5 114.193 561.595L116.14 562.053ZM116.934 554.912C116.934 552.999 116.712 551.127 116.266 549.299L114.323 549.773C114.73 551.443 114.934 553.156 114.934 554.912H116.934ZM116.267 549.304C115.819 547.422 115.141 545.74 114.222 544.27L112.526 545.33C113.314 546.591 113.916 548.066 114.321 549.768L116.267 549.304ZM114.196 544.231L113.62 543.399L111.976 544.537L112.552 545.369L114.196 544.231ZM113.566 544.608L114.206 543.84L112.67 542.56L112.03 543.328L113.566 544.608ZM113.541 544.195L120.325 543.491L120.119 541.501L113.335 542.205L113.541 544.195ZM119.23 542.62C119.481 544.627 119.606 546.634 119.606 548.64H121.606C121.606 546.55 121.476 544.461 121.215 542.372L119.23 542.62ZM119.606 548.64C119.606 550.472 119.481 552.304 119.231 554.137L121.213 554.407C121.475 552.485 121.606 550.563 121.606 548.64H119.606ZM119.233 554.419L120.449 562.611L122.427 562.317L121.211 554.125L119.233 554.419ZM120.449 562.608C120.795 564.99 121.332 566.859 122.142 568.075L123.806 566.965C123.251 566.133 122.764 564.631 122.428 562.32L120.449 562.608ZM122.158 568.098C123.09 569.413 124.454 570.056 126.11 570.056V568.056C125.036 568.056 124.31 567.675 123.79 566.942L122.158 568.098ZM126.11 570.056C127.769 570.056 129.128 569.147 130.19 567.651L128.559 566.493C127.743 567.642 126.927 568.056 126.11 568.056V570.056ZM130.186 567.656C131.262 566.158 132.053 564.28 132.587 562.057L130.642 561.591C130.151 563.634 129.449 565.255 128.562 566.488L130.186 567.656ZM132.583 562.071C133.16 559.808 133.446 557.42 133.446 554.912H131.446C131.446 557.268 131.178 559.488 130.645 561.577L132.583 562.071ZM133.446 554.912C133.446 552.999 133.224 551.127 132.778 549.299L130.835 549.773C131.242 551.443 131.446 553.156 131.446 554.912H133.446ZM132.779 549.304C132.331 547.422 131.653 545.74 130.734 544.27L129.038 545.33C129.826 546.591 130.428 548.066 130.833 549.768L132.779 549.304ZM130.738 544.276L130.226 543.444L128.523 544.492L129.035 545.324L130.738 544.276ZM130.174 544.568L130.75 543.8L129.15 542.6L128.574 543.368L130.174 544.568ZM130.053 544.195L136.901 543.491L136.696 541.501L129.848 542.205L130.053 544.195ZM135.8 542.558C135.971 545.284 136.054 547.307 136.054 548.64H138.054C138.054 547.242 137.967 545.169 137.796 542.434L135.8 542.558ZM136.054 548.64C136.054 553.695 135.527 557.991 134.494 561.545L136.414 562.103C137.515 558.318 138.054 553.825 138.054 548.64H136.054ZM134.492 561.552C133.492 565.092 132.165 567.679 130.563 569.398L132.026 570.762C133.922 568.726 135.368 565.809 136.417 562.096L134.492 561.552ZM130.562 569.399C128.999 571.079 127.372 571.832 125.662 571.832V573.832C128.048 573.832 130.176 572.75 132.026 570.761L130.562 569.399ZM125.662 571.832C123.608 571.832 122.117 571.321 121.069 570.412L119.759 571.924C121.271 573.234 123.279 573.832 125.662 573.832V571.832ZM121.069 570.412C120.01 569.495 119.099 567.845 118.439 565.286L116.502 565.786C117.207 568.518 118.258 570.623 119.759 571.924L121.069 570.412ZM116.551 565.142C115.569 567.433 114.393 569.098 113.056 570.206L114.332 571.746C115.982 570.379 117.323 568.418 118.389 565.93L116.551 565.142ZM113.045 570.215C111.758 571.313 110.384 571.832 108.894 571.832V573.832C110.904 573.832 112.729 573.114 114.343 571.737L113.045 570.215ZM162.227 570.976L162.752 570.125L162.752 570.125L162.227 570.976ZM157.555 565.792L156.657 566.232L156.661 566.239L157.555 565.792ZM157.747 549.856L158.632 550.322L158.632 550.322L157.747 549.856ZM162.995 544.416L162.51 543.542L162.503 543.546L162.995 544.416ZM178.227 544.992L177.529 545.708L177.538 545.717L178.227 544.992ZM179.507 555.68L178.65 555.166L178.644 555.175L178.639 555.184L179.507 555.68ZM175.667 559.328L175.185 558.452L175.176 558.457L175.667 559.328ZM165.619 560.096L165.319 561.05L165.332 561.054L165.345 561.058L165.619 560.096ZM163.635 557.152L164.467 557.707L164.467 557.707L163.635 557.152ZM165.363 557.152L164.992 558.08L165.028 558.095L165.065 558.106L165.363 557.152ZM173.427 555.552L174.134 556.259L174.134 556.259L173.427 555.552ZM173.811 546.976L173.062 547.639L173.069 547.646L173.076 547.654L173.811 546.976ZM163.955 548.64L163.111 548.104L163.108 548.109L163.955 548.64ZM164.083 566.112L163.279 566.706L163.286 566.716L163.294 566.726L164.083 566.112ZM178.931 565.664L178.224 564.957L178.224 564.957L178.931 565.664ZM180.467 565.984L179.76 566.691L179.781 566.712L179.803 566.731L180.467 565.984ZM180.915 567.456L181.622 568.163L181.692 568.093L181.747 568.011L180.915 567.456ZM180.787 567.648L181.549 568.296L181.787 568.016V567.648H180.787ZM175.603 571.552L176.002 572.469L176.011 572.465L175.603 571.552ZM169.267 571.832C166.738 571.832 164.579 571.252 162.752 570.125L161.702 571.827C163.887 573.175 166.42 573.832 169.267 573.832V571.832ZM162.752 570.125C160.914 568.991 159.48 567.406 158.45 565.345L156.661 566.239C157.849 568.615 159.53 570.487 161.702 571.827L162.752 570.125ZM158.453 565.352C157.421 563.249 156.891 560.801 156.891 557.984H154.891C154.891 561.055 155.47 563.813 156.657 566.232L158.453 565.352ZM156.891 557.984C156.891 555.049 157.481 552.504 158.632 550.322L156.863 549.39C155.538 551.901 154.891 554.775 154.891 557.984H156.891ZM158.632 550.322C159.782 548.141 161.397 546.47 163.488 545.286L162.503 543.546C160.071 544.922 158.187 546.877 156.863 549.39L158.632 550.322ZM163.481 545.29C165.617 544.103 168.092 543.496 170.931 543.496V541.496C167.798 541.496 164.981 542.169 162.51 543.542L163.481 545.29ZM170.931 543.496C173.915 543.496 176.064 544.279 177.529 545.708L178.925 544.276C176.978 542.377 174.262 541.496 170.931 541.496V543.496ZM177.538 545.717C179.095 547.198 179.851 548.944 179.851 551.008H181.851C181.851 548.379 180.858 546.114 178.916 544.267L177.538 545.717ZM179.851 551.008C179.851 552.435 179.46 553.816 178.65 555.166L180.365 556.194C181.347 554.558 181.851 552.824 181.851 551.008H179.851ZM178.639 555.184C177.889 556.497 176.753 557.59 175.185 558.452L176.149 560.204C177.995 559.189 179.419 557.85 180.375 556.176L178.639 555.184ZM175.176 558.457C173.687 559.297 171.9 559.736 169.779 559.736V561.736C172.181 561.736 174.319 561.237 176.159 560.199L175.176 558.457ZM169.779 559.736C168.609 559.736 167.316 559.541 165.894 559.134L165.345 561.058C166.909 561.504 168.389 561.736 169.779 561.736V559.736ZM165.919 559.142C164.492 558.694 164.379 558.227 164.379 558.048H162.379C162.379 559.661 163.76 560.56 165.319 561.05L165.919 559.142ZM164.379 558.048C164.379 557.882 164.418 557.781 164.467 557.707L162.803 556.597C162.511 557.035 162.379 557.532 162.379 558.048H164.379ZM164.467 557.707C164.502 557.654 164.506 557.667 164.462 557.696C164.438 557.712 164.403 557.731 164.356 557.746C164.309 557.76 164.26 557.768 164.211 557.768V555.768C163.531 555.768 163.071 556.195 162.803 556.597L164.467 557.707ZM164.211 557.768C164.114 557.768 164.063 557.75 164.113 557.762C164.143 557.77 164.196 557.785 164.279 557.813C164.444 557.868 164.679 557.955 164.992 558.08L165.735 556.224C165.407 556.093 165.13 555.988 164.911 555.915C164.803 555.879 164.696 555.846 164.598 555.822C164.52 555.802 164.372 555.768 164.211 555.768V557.768ZM165.065 558.106C165.879 558.361 166.864 558.472 167.987 558.472V556.472C166.977 556.472 166.213 556.37 165.662 556.198L165.065 558.106ZM167.987 558.472C170.517 558.472 172.616 557.778 174.134 556.259L172.72 554.845C171.679 555.886 170.151 556.472 167.987 556.472V558.472ZM174.134 556.259C175.6 554.794 176.347 553.004 176.347 550.944H174.347C174.347 552.468 173.815 553.75 172.72 554.845L174.134 556.259ZM176.347 550.944C176.347 549.161 175.744 547.595 174.546 546.298L173.076 547.654C173.927 548.575 174.347 549.655 174.347 550.944H176.347ZM174.56 546.313C173.364 544.962 171.754 544.312 169.843 544.312V546.312C171.26 546.312 172.295 546.772 173.062 547.639L174.56 546.313ZM169.843 544.312C166.966 544.312 164.693 545.612 163.111 548.104L164.8 549.176C166.034 547.231 167.686 546.312 169.843 546.312V544.312ZM163.108 548.109C161.601 550.511 160.907 553.842 160.907 557.984H162.907C162.907 554.019 163.579 551.121 164.802 549.171L163.108 548.109ZM160.907 557.984C160.907 561.568 161.658 564.513 163.279 566.706L164.887 565.518C163.607 563.785 162.907 561.312 162.907 557.984H160.907ZM163.294 566.726C165.005 568.926 167.45 569.992 170.483 569.992V567.992C167.969 567.992 166.148 567.138 164.873 565.498L163.294 566.726ZM170.483 569.992C174.136 569.992 177.215 568.795 179.638 566.371L178.224 564.957C176.21 566.971 173.657 567.992 170.483 567.992V569.992ZM179.638 566.371C179.601 566.409 179.554 566.439 179.506 566.456C179.462 566.473 179.436 566.472 179.443 566.472V564.472C179.016 564.472 178.573 564.608 178.224 564.957L179.638 566.371ZM179.443 566.472C179.444 566.472 179.448 566.472 179.457 566.474C179.466 566.476 179.483 566.482 179.508 566.494C179.561 566.521 179.646 566.577 179.76 566.691L181.174 565.277C180.724 564.827 180.143 564.472 179.443 564.472V566.472ZM179.803 566.731C180.049 566.95 180.043 567.061 180.043 567.072H182.043C182.043 566.315 181.653 565.7 181.132 565.237L179.803 566.731ZM180.043 567.072C180.043 567.023 180.052 566.98 180.063 566.948C180.068 566.932 180.073 566.921 180.077 566.913C180.079 566.909 180.08 566.906 180.081 566.904C180.082 566.903 180.082 566.902 180.083 566.902C180.083 566.902 180.083 566.902 180.083 566.901C180.083 566.901 180.083 566.901 180.083 566.901L181.747 568.011C181.92 567.752 182.043 567.434 182.043 567.072H180.043ZM180.208 566.749C180.142 566.815 180.06 566.905 179.987 567.013C179.933 567.095 179.787 567.326 179.787 567.648H181.787C181.787 567.8 181.75 567.917 181.724 567.983C181.696 568.052 181.667 568.099 181.651 568.123C181.622 568.167 181.603 568.182 181.622 568.163L180.208 566.749ZM180.025 567C178.669 568.596 177.062 569.805 175.195 570.639L176.011 572.465C178.156 571.507 180.004 570.114 181.549 568.296L180.025 567ZM175.205 570.635C173.375 571.43 171.399 571.832 169.267 571.832V573.832C171.658 573.832 173.906 573.38 176.002 572.469L175.205 570.635ZM206.996 571.872L206.661 572.814L206.674 572.819L206.686 572.823L206.996 571.872ZM202.388 569.12H201.388V569.534L201.681 569.827L202.388 569.12ZM202.132 531.936L201.351 532.561L201.386 532.604L201.425 532.643L202.132 531.936ZM198.74 531.616L197.809 531.98L198.058 532.616H198.74V531.616ZM198.164 530.144L197.486 529.409L196.984 529.872L197.233 530.508L198.164 530.144ZM202.004 527.648L202.408 528.563L202.419 528.558L202.43 528.553L202.004 527.648ZM207.764 567.712H206.764V568.215L207.168 568.514L207.764 567.712ZM219.924 566.368L220.744 566.941L220.749 566.934L219.924 566.368ZM219.988 548.96L219.156 549.515L219.156 549.515L219.988 548.96ZM211.604 546.08L211.941 547.022L211.958 547.015L211.976 547.008L211.604 546.08ZM209.876 546.016L209.044 546.571L209.074 546.615L209.108 546.656L209.876 546.016ZM210.196 544.032L209.691 543.169L209.634 543.202L209.582 543.243L210.196 544.032ZM222.356 544.288L221.811 545.126L221.819 545.132L222.356 544.288ZM226.708 549.28L225.807 549.713L225.812 549.724L225.817 549.734L226.708 549.28ZM226.324 564.896L225.439 564.431L225.436 564.437L226.324 564.896ZM213.332 571.832C211.166 571.832 209.16 571.526 207.306 570.921L206.686 572.823C208.758 573.498 210.976 573.832 213.332 573.832V571.832ZM207.331 570.93C205.517 570.285 204.119 569.437 203.095 568.413L201.681 569.827C202.961 571.107 204.635 572.094 206.661 572.814L207.331 570.93ZM203.388 569.12V532.896H201.388V569.12H203.388ZM203.388 532.896C203.388 532.382 203.311 531.7 202.839 531.229L201.425 532.643C201.348 532.566 201.345 532.511 201.358 532.562C201.371 532.611 201.388 532.715 201.388 532.896H203.388ZM202.913 531.311C202.466 530.753 201.795 530.616 201.236 530.616V532.616C201.302 532.616 201.351 532.62 201.387 532.625C201.422 532.631 201.44 532.636 201.444 532.638C201.448 532.639 201.436 532.635 201.417 532.622C201.397 532.608 201.373 532.588 201.351 532.561L202.913 531.311ZM201.236 530.616H198.74V532.616H201.236V530.616ZM199.671 531.252L199.095 529.78L197.233 530.508L197.809 531.98L199.671 531.252ZM198.843 530.879C199.867 529.933 201.053 529.161 202.408 528.563L201.601 526.733C200.054 527.415 198.68 528.307 197.486 529.409L198.843 530.879ZM202.43 528.553C203.796 527.91 204.949 527.624 205.908 527.624V525.624C204.563 525.624 203.113 526.021 201.578 526.743L202.43 528.553ZM205.908 527.624C206.241 527.624 206.42 527.718 206.545 527.843L207.959 526.429C207.402 525.872 206.685 525.624 205.908 525.624V527.624ZM206.545 527.843C206.671 527.969 206.764 528.148 206.764 528.48H208.764C208.764 527.703 208.517 526.986 207.959 526.429L206.545 527.843ZM206.764 528.48V567.712H208.764V528.48H206.764ZM207.168 568.514C209.026 569.897 211.248 570.568 213.78 570.568V568.568C211.619 568.568 209.83 568.002 208.361 566.91L207.168 568.514ZM213.78 570.568C216.709 570.568 219.063 569.342 220.743 566.941L219.105 565.795C217.799 567.661 216.056 568.568 213.78 568.568V570.568ZM220.749 566.934C222.393 564.538 223.164 561.395 223.164 557.6H221.164C221.164 561.144 220.442 563.846 219.1 565.802L220.749 566.934ZM223.164 557.6C223.164 553.89 222.414 550.796 220.82 548.405L219.156 549.515C220.464 551.476 221.164 554.142 221.164 557.6H223.164ZM220.82 548.405C219.201 545.976 216.959 544.696 214.164 544.696V546.696C216.233 546.696 217.874 547.592 219.156 549.515L220.82 548.405ZM214.164 544.696C213.033 544.696 212.038 544.83 211.233 545.152L211.976 547.008C212.451 546.818 213.163 546.696 214.164 546.696V544.696ZM211.268 545.138C210.977 545.242 210.757 545.315 210.602 545.361C210.524 545.384 210.473 545.396 210.444 545.403C210.399 545.413 210.438 545.4 210.516 545.4V547.4C210.748 547.4 211.008 547.326 211.166 547.279C211.374 547.218 211.634 547.131 211.941 547.022L211.268 545.138ZM210.516 545.4C210.564 545.4 210.608 545.407 210.644 545.418C210.679 545.429 210.701 545.441 210.711 545.447C210.727 545.456 210.702 545.445 210.644 545.376L209.108 546.656C209.404 547.012 209.872 547.4 210.516 547.4V545.4ZM210.708 545.461C210.644 545.364 210.62 545.279 210.62 545.184H208.62C208.62 545.686 208.768 546.156 209.044 546.571L210.708 545.461ZM210.62 545.184C210.62 545.036 210.659 544.939 210.81 544.821L209.582 543.243C208.965 543.723 208.62 544.393 208.62 545.184H210.62ZM210.701 544.895C212.286 543.967 214.072 543.496 216.084 543.496V541.496C213.744 541.496 211.605 542.049 209.691 543.169L210.701 544.895ZM216.084 543.496C218.252 543.496 220.15 544.045 221.811 545.126L222.902 543.45C220.893 542.142 218.61 541.496 216.084 541.496V543.496ZM221.819 545.132C223.529 546.22 224.858 547.737 225.807 549.713L227.61 548.847C226.51 546.557 224.938 544.746 222.893 543.444L221.819 545.132ZM225.817 549.734C226.801 551.663 227.308 553.913 227.308 556.512H229.308C229.308 553.649 228.748 551.078 227.599 548.826L225.817 549.734ZM227.308 556.512C227.308 559.435 226.68 562.068 225.439 564.431L227.21 565.361C228.614 562.689 229.308 559.733 229.308 556.512H227.308ZM225.436 564.437C224.235 566.759 222.585 568.563 220.484 569.871L221.541 571.569C223.962 570.061 225.854 567.982 227.212 565.355L225.436 564.437ZM220.484 569.871C218.393 571.173 216.018 571.832 213.332 571.832V573.832C216.364 573.832 219.109 573.083 221.541 571.569L220.484 569.871ZM253.921 571.872L253.586 572.814L253.599 572.819L253.611 572.823L253.921 571.872ZM249.313 569.12H248.313V569.534L248.606 569.827L249.313 569.12ZM249.057 531.936L248.276 532.561L248.311 532.604L248.35 532.643L249.057 531.936ZM245.665 531.616L244.734 531.98L244.983 532.616H245.665V531.616ZM245.089 530.144L244.411 529.409L243.909 529.872L244.158 530.508L245.089 530.144ZM248.929 527.648L249.333 528.563L249.344 528.558L249.355 528.553L248.929 527.648ZM254.689 567.712H253.689V568.215L254.093 568.514L254.689 567.712ZM266.849 566.368L267.669 566.941L267.674 566.934L266.849 566.368ZM266.913 548.96L266.081 549.515L266.081 549.515L266.913 548.96ZM258.529 546.08L258.866 547.022L258.883 547.015L258.901 547.008L258.529 546.08ZM256.801 546.016L255.969 546.571L255.999 546.615L256.033 546.656L256.801 546.016ZM257.121 544.032L256.616 543.169L256.559 543.202L256.507 543.243L257.121 544.032ZM269.281 544.288L268.736 545.126L268.744 545.132L269.281 544.288ZM273.633 549.28L272.732 549.713L272.737 549.724L272.742 549.734L273.633 549.28ZM273.249 564.896L272.364 564.431L272.361 564.437L273.249 564.896ZM260.257 571.832C258.091 571.832 256.085 571.526 254.231 570.921L253.611 572.823C255.683 573.498 257.901 573.832 260.257 573.832V571.832ZM254.256 570.93C252.442 570.285 251.044 569.437 250.02 568.413L248.606 569.827C249.886 571.107 251.56 572.094 253.586 572.814L254.256 570.93ZM250.313 569.12V532.896H248.313V569.12H250.313ZM250.313 532.896C250.313 532.382 250.236 531.7 249.764 531.229L248.35 532.643C248.273 532.566 248.27 532.511 248.283 532.562C248.296 532.611 248.313 532.715 248.313 532.896H250.313ZM249.838 531.311C249.391 530.753 248.72 530.616 248.161 530.616V532.616C248.227 532.616 248.276 532.62 248.312 532.625C248.347 532.631 248.365 532.636 248.369 532.638C248.372 532.639 248.361 532.635 248.342 532.622C248.322 532.608 248.298 532.588 248.276 532.561L249.838 531.311ZM248.161 530.616H245.665V532.616H248.161V530.616ZM246.596 531.252L246.02 529.78L244.158 530.508L244.734 531.98L246.596 531.252ZM245.768 530.879C246.792 529.933 247.978 529.161 249.333 528.563L248.526 526.733C246.979 527.415 245.605 528.307 244.411 529.409L245.768 530.879ZM249.355 528.553C250.721 527.91 251.874 527.624 252.833 527.624V525.624C251.488 525.624 250.038 526.021 248.503 526.743L249.355 528.553ZM252.833 527.624C253.166 527.624 253.345 527.718 253.47 527.843L254.884 526.429C254.327 525.872 253.61 525.624 252.833 525.624V527.624ZM253.47 527.843C253.596 527.969 253.689 528.148 253.689 528.48H255.689C255.689 527.703 255.442 526.986 254.884 526.429L253.47 527.843ZM253.689 528.48V567.712H255.689V528.48H253.689ZM254.093 568.514C255.951 569.897 258.173 570.568 260.705 570.568V568.568C258.544 568.568 256.755 568.002 255.286 566.91L254.093 568.514ZM260.705 570.568C263.634 570.568 265.988 569.342 267.668 566.941L266.03 565.795C264.724 567.661 262.981 568.568 260.705 568.568V570.568ZM267.674 566.934C269.318 564.538 270.089 561.395 270.089 557.6H268.089C268.089 561.144 267.367 563.846 266.025 565.802L267.674 566.934ZM270.089 557.6C270.089 553.89 269.339 550.796 267.745 548.405L266.081 549.515C267.389 551.476 268.089 554.142 268.089 557.6H270.089ZM267.745 548.405C266.126 545.976 263.884 544.696 261.089 544.696V546.696C263.158 546.696 264.799 547.592 266.081 549.515L267.745 548.405ZM261.089 544.696C259.958 544.696 258.963 544.83 258.158 545.152L258.901 547.008C259.376 546.818 260.088 546.696 261.089 546.696V544.696ZM258.193 545.138C257.902 545.242 257.682 545.315 257.527 545.361C257.449 545.384 257.398 545.396 257.369 545.403C257.324 545.413 257.363 545.4 257.441 545.4V547.4C257.673 547.4 257.933 547.326 258.091 547.279C258.299 547.218 258.559 547.131 258.866 547.022L258.193 545.138ZM257.441 545.4C257.489 545.4 257.533 545.407 257.569 545.418C257.604 545.429 257.626 545.441 257.636 545.447C257.652 545.456 257.627 545.445 257.569 545.376L256.033 546.656C256.329 547.012 256.797 547.4 257.441 547.4V545.4ZM257.633 545.461C257.569 545.364 257.545 545.279 257.545 545.184H255.545C255.545 545.686 255.693 546.156 255.969 546.571L257.633 545.461ZM257.545 545.184C257.545 545.036 257.584 544.939 257.735 544.821L256.507 543.243C255.89 543.723 255.545 544.393 255.545 545.184H257.545ZM257.626 544.895C259.211 543.967 260.997 543.496 263.009 543.496V541.496C260.669 541.496 258.53 542.049 256.616 543.169L257.626 544.895ZM263.009 543.496C265.177 543.496 267.075 544.045 268.736 545.126L269.827 543.45C267.818 542.142 265.535 541.496 263.009 541.496V543.496ZM268.744 545.132C270.454 546.22 271.783 547.737 272.732 549.713L274.535 548.847C273.435 546.557 271.863 544.746 269.818 543.444L268.744 545.132ZM272.742 549.734C273.726 551.663 274.233 553.913 274.233 556.512H276.233C276.233 553.649 275.673 551.078 274.524 548.826L272.742 549.734ZM274.233 556.512C274.233 559.435 273.605 562.068 272.364 564.431L274.134 565.361C275.538 562.689 276.233 559.733 276.233 556.512H274.233ZM272.361 564.437C271.16 566.759 269.51 568.563 267.409 569.871L268.466 571.569C270.887 570.061 272.779 567.982 274.137 565.355L272.361 564.437ZM267.409 569.871C265.318 571.173 262.943 571.832 260.257 571.832V573.832C263.289 573.832 266.034 573.083 268.466 571.569L267.409 569.871ZM297.006 568.736L296.271 569.414L296.277 569.42L297.006 568.736ZM297.006 546.592L297.73 547.282L297.736 547.276L297.006 546.592ZM314.862 544.352L314.361 545.217L314.361 545.217L314.862 544.352ZM319.79 549.6L320.681 549.146L320.681 549.146L319.79 549.6ZM319.726 565.664L318.839 565.204L318.835 565.21L318.832 565.217L319.726 565.664ZM313.134 566.432L312.312 565.863L312.31 565.866L313.134 566.432ZM314.67 552.224L313.705 552.487L313.707 552.493L314.67 552.224ZM312.11 547.488L311.356 548.145L311.367 548.158L311.379 548.17L312.11 547.488ZM301.486 548.832L300.664 548.263L300.657 548.274L301.486 548.832ZM301.358 566.432L300.519 566.975L300.526 566.987L301.358 566.432ZM307.374 571.832C303.25 571.832 300.076 570.548 297.736 568.052L296.277 569.42C299.057 572.385 302.795 573.832 307.374 573.832V571.832ZM297.741 568.058C295.389 565.51 294.166 562.06 294.166 557.6H292.166C292.166 562.441 293.504 566.416 296.271 569.414L297.741 568.058ZM294.166 557.6C294.166 553.138 295.389 549.74 297.73 547.282L296.282 545.902C293.503 548.82 292.166 552.761 292.166 557.6H294.166ZM297.736 547.276C300.076 544.78 303.25 543.496 307.374 543.496V541.496C302.795 541.496 299.057 542.943 296.277 545.908L297.736 547.276ZM307.374 543.496C310.085 543.496 312.402 544.081 314.361 545.217L315.364 543.487C313.055 542.148 310.381 541.496 307.374 541.496V543.496ZM314.361 545.217C316.322 546.355 317.832 547.959 318.899 550.054L320.681 549.146C319.445 546.718 317.669 544.824 315.364 543.487L314.361 545.217ZM318.899 550.054C319.966 552.148 320.518 554.653 320.518 557.6H322.518C322.518 554.403 321.918 551.575 320.681 549.146L318.899 550.054ZM320.518 557.6C320.518 560.541 319.947 563.066 318.839 565.204L320.614 566.124C321.895 563.654 322.518 560.803 322.518 557.6H320.518ZM318.832 565.217C317.763 567.354 316.253 568.976 314.297 570.111L315.3 571.841C317.61 570.501 319.385 568.582 320.621 566.111L318.832 565.217ZM314.297 570.111C312.336 571.248 310.039 571.832 307.374 571.832V573.832C310.341 573.832 312.994 573.179 315.3 571.841L314.297 570.111ZM307.246 570.696C310.04 570.696 312.298 569.418 313.959 566.998L312.31 565.866C310.984 567.798 309.317 568.696 307.246 568.696V570.696ZM313.956 567.001C315.641 564.568 316.438 561.45 316.438 557.728H314.438C314.438 561.174 313.7 563.858 312.312 565.863L313.956 567.001ZM316.438 557.728C316.438 555.799 316.169 553.874 315.633 551.955L313.707 552.493C314.196 554.243 314.438 555.988 314.438 557.728H316.438ZM315.635 551.961C315.085 549.945 314.159 548.217 312.841 546.806L311.379 548.17C312.451 549.319 313.231 550.749 313.705 552.487L315.635 551.961ZM312.864 546.831C311.508 545.274 309.71 544.504 307.566 544.504V546.504C309.177 546.504 310.409 547.057 311.356 548.145L312.864 546.831ZM307.566 544.504C304.694 544.504 302.371 545.797 300.664 548.263L302.308 549.401C303.674 547.429 305.404 546.504 307.566 546.504V544.504ZM300.657 548.274C299.018 550.708 298.246 553.868 298.246 557.664H300.246C300.246 554.122 300.968 551.393 302.316 549.39L300.657 548.274ZM298.246 557.664C298.246 561.449 298.971 564.583 300.519 566.975L302.198 565.889C300.93 563.929 300.246 561.217 300.246 557.664H298.246ZM300.526 566.987C302.15 569.422 304.415 570.696 307.246 570.696V568.696C305.128 568.696 303.468 567.794 302.19 565.877L300.526 566.987ZM343.946 571.36L343.194 572.019L343.201 572.026L343.208 572.034L343.946 571.36ZM342.602 546.784H343.602V545.784H342.602V546.784ZM337.546 546.784H336.546V547.784H337.546V546.784ZM337.802 544.8L338.67 545.296L338.684 545.272L338.697 545.247L337.802 544.8ZM338.954 544.032L338.712 543.062L338.696 543.066L338.68 543.07L338.954 544.032ZM343.306 541.472L342.493 540.891L342.493 540.891L343.306 541.472ZM345.226 536.736L346.203 536.948L346.211 536.913L346.216 536.877L345.226 536.736ZM345.802 535.648L346.196 536.567L346.223 536.556L346.249 536.542L345.802 535.648ZM347.978 535.392H348.978V534.392H347.978V535.392ZM347.978 543.2H346.978V544.2H347.978V543.2ZM355.466 543.2H356.466V542.2H355.466V543.2ZM355.082 545.376L354.154 545.005L354.143 545.032L354.134 545.06L355.082 545.376ZM354.186 546.784V547.784H354.529L354.8 547.573L354.186 546.784ZM347.978 546.784V545.784H346.978V546.784H347.978ZM348.426 568.096L347.562 568.6L347.588 568.643L347.618 568.684L348.426 568.096ZM354.058 566.944L354.874 566.366L354.242 565.473L353.409 566.183L354.058 566.944ZM355.146 568.48L355.94 569.088L356.388 568.503L355.962 567.902L355.146 568.48ZM347.658 571.832C346.303 571.832 345.356 571.421 344.685 570.686L343.208 572.034C344.329 573.262 345.856 573.832 347.658 573.832V571.832ZM344.699 570.701C344.004 569.907 343.602 568.778 343.602 567.2H341.602C341.602 569.121 342.097 570.765 343.194 572.019L344.699 570.701ZM343.602 567.2V546.784H341.602V567.2H343.602ZM342.602 545.784H337.546V547.784H342.602V545.784ZM338.546 546.784C338.546 546.295 338.567 545.92 338.602 545.648C338.641 545.348 338.686 545.269 338.67 545.296L336.934 544.304C336.748 544.629 336.665 545.03 336.618 545.392C336.568 545.781 336.546 546.249 336.546 546.784H338.546ZM338.697 545.247C338.689 545.262 338.696 545.236 338.773 545.184C338.855 545.129 338.998 545.06 339.229 544.994L338.68 543.07C337.977 543.271 337.264 543.641 336.908 544.353L338.697 545.247ZM339.197 545.002C341.376 544.457 343.079 543.511 344.12 542.053L342.493 540.891C341.827 541.823 340.628 542.583 338.712 543.062L339.197 545.002ZM344.12 542.053C345.076 540.715 345.758 538.998 346.203 536.948L344.249 536.524C343.841 538.399 343.244 539.839 342.493 540.891L344.12 542.053ZM346.216 536.877C346.25 536.644 346.295 536.527 346.318 536.484C346.336 536.45 346.307 536.52 346.196 536.567L345.408 534.729C344.59 535.08 344.33 535.941 344.236 536.595L346.216 536.877ZM346.249 536.542C346.244 536.545 346.275 536.53 346.364 536.508C346.448 536.488 346.565 536.467 346.719 536.449C347.029 536.413 347.445 536.392 347.978 536.392V534.392C347.402 534.392 346.901 534.414 346.485 534.463C346.093 534.509 345.685 534.588 345.355 534.754L346.249 536.542ZM346.978 535.392V543.2H348.978V535.392H346.978ZM347.978 544.2H355.466V542.2H347.978V544.2ZM354.466 543.2C354.466 543.905 354.355 544.502 354.154 545.005L356.011 545.747C356.322 544.97 356.466 544.116 356.466 543.2H354.466ZM354.134 545.06C353.959 545.582 353.751 545.856 353.572 545.995L354.8 547.573C355.39 547.115 355.779 546.45 356.031 545.692L354.134 545.06ZM354.186 545.784H347.978V547.784H354.186V545.784ZM346.978 546.784V565.536H348.978V546.784H346.978ZM346.978 565.536C346.978 566.761 347.122 567.845 347.562 568.6L349.29 567.592C349.133 567.323 348.978 566.7 348.978 565.536H346.978ZM347.618 568.684C348.215 569.506 349.16 569.8 350.154 569.8V567.8C349.527 567.8 349.32 567.625 349.235 567.508L347.618 568.684ZM350.154 569.8C351.657 569.8 353.186 569.003 354.707 567.705L353.409 566.183C352.03 567.36 350.956 567.8 350.154 567.8V569.8ZM353.242 567.522L354.33 569.058L355.962 567.902L354.874 566.366L353.242 567.522ZM354.353 567.872C353.452 569.046 352.358 570.004 351.063 570.749L352.061 572.483C353.583 571.607 354.878 570.474 355.94 569.088L354.353 567.872ZM351.063 570.749C349.755 571.503 348.626 571.832 347.658 571.832V573.832C349.08 573.832 350.554 573.35 352.061 572.483L351.063 570.749Z" fill="url(#paint0_linear)" fill-opacity="0.71"/>
</g>
<defs>
<filter id="filter0_d" x="88.2231" y="525.624" width="272.243" height="56.208" filterUnits="userSpaceOnUse" color-interpolation-filters="sRGB">
<feFlood flood-opacity="0" result="BackgroundImageFix"/>
<feColorMatrix in="SourceAlpha" type="matrix" values="0 0 0 0 0 0 0 0 0 0 0 0 0 0 0 0 0 0 127 0"/>
<feOffset dy="4"/>
<feGaussianBlur stdDeviation="2"/>
<feColorMatrix type="matrix" values="0 0 0 0 0 0 0 0 0 0 0 0 0 0 0 0 0 0 0.25 0"/>
<feBlend mode="normal" in2="BackgroundImageFix" result="effect1_dropShadow"/>
<feBlend mode="normal" in="SourceGraphic" in2="effect1_dropShadow" result="shape"/>
</filter>
<linearGradient id="paint0_linear" x1="225" y1="534" x2="225" y2="609" gradientUnits="userSpaceOnUse">
<stop stop-color="#FF0303"/>
<stop offset="1" stop-opacity="0"/>
</linearGradient>
</defs>
</svg>
